<svg width="17" height="17" viewBox="0 0 17 17" fill="none" xmlns="http://www.w3.org/2000/svg">
<g clip-path="url(#clip0_1_442)">
<path d="M13.4399 5.66667H15.5833C15.9591 5.66667 16.3194 5.81593 16.5851 6.0816C16.8507 6.34728 17 6.70761 17 7.08334V11.3333H15.5833V14.875C15.5833 15.0629 15.5087 15.243 15.3759 15.3759C15.243 15.5087 15.0629 15.5833 14.875 15.5833H13.4583C13.2705 15.5833 13.0903 15.5087 12.9575 15.3759C12.8246 15.243 12.75 15.0629 12.75 14.875V11.3333H11.3333V7.08334C11.3333 6.70761 11.4826 6.34728 11.7483 6.0816C12.0139 5.81593 12.3743 5.66667 12.75 5.66667H13.4399ZM14.1667 4.95834C13.978 4.9626 13.7904 4.92914 13.6149 4.8599C13.4393 4.79066 13.2794 4.68705 13.1444 4.55515C13.0095 4.42325 12.9022 4.26572 12.829 4.0918C12.7558 3.91789 12.718 3.73109 12.718 3.54239C12.7179 3.35368 12.7556 3.16687 12.8287 2.99292C12.9019 2.81896 13.009 2.66138 13.1439 2.52941C13.2788 2.39744 13.4387 2.29375 13.6142 2.22443C13.7897 2.1551 13.9773 2.12154 14.166 2.12571C14.5361 2.1339 14.8883 2.28666 15.1473 2.55131C15.4062 2.81595 15.5512 3.17144 15.5513 3.54168C15.5514 3.91192 15.4065 4.26748 15.1478 4.53225C14.889 4.79703 14.5368 4.94997 14.1667 4.95834ZM2.10658 5.66667H4.25C4.62572 5.66667 4.98606 5.81593 5.25173 6.0816C5.51741 6.34728 5.66667 6.70761 5.66667 7.08334V11.3333H4.25V14.875C4.25 15.0629 4.17537 15.243 4.04253 15.3759C3.9097 15.5087 3.72953 15.5833 3.54167 15.5833H2.125C1.93714 15.5833 1.75697 15.5087 1.62413 15.3759C1.49129 15.243 1.41667 15.0629 1.41667 14.875V11.3333H0V7.08334C0 6.70761 0.149256 6.34728 0.414932 6.0816C0.680609 5.81593 1.04094 5.66667 1.41667 5.66667H2.10658ZM2.83333 4.95834C2.64468 4.9626 2.45707 4.92914 2.28152 4.8599C2.10598 4.79066 1.94604 4.68705 1.81109 4.55515C1.67613 4.42325 1.5689 4.26572 1.49566 4.0918C1.42243 3.91789 1.38469 3.73109 1.38464 3.54239C1.38459 3.35368 1.42225 3.16687 1.49539 2.99292C1.56853 2.81896 1.67569 2.66138 1.81058 2.52941C1.94546 2.39744 2.10536 2.29375 2.28086 2.22443C2.45637 2.1551 2.64397 2.12154 2.83262 2.12571C3.20277 2.1339 3.55501 2.28666 3.81393 2.55131C4.07285 2.81595 4.21788 3.17144 4.21797 3.54168C4.21806 3.91192 4.07321 4.26748 3.81442 4.53225C3.55564 4.79703 3.20348 4.94997 2.83333 4.95834Z" fill="#475569"/>
<path d="M8.5 4.25C7.93641 4.25 7.39591 4.02612 6.9974 3.6276C6.59888 3.22909 6.375 2.68859 6.375 2.125C6.375 1.56141 6.59888 1.02091 6.9974 0.622398C7.39591 0.223883 7.93641 0 8.5 0C9.06358 0 9.60409 0.223883 10.0026 0.622398C10.4011 1.02091 10.625 1.56141 10.625 2.125C10.625 2.68859 10.4011 3.22909 10.0026 3.6276C9.60409 4.02612 9.06358 4.25 8.5 4.25ZM9.91667 17H7.08333C6.89547 17 6.7153 16.9254 6.58247 16.7925C6.44963 16.6597 6.375 16.4795 6.375 16.2917V12.0417H4.25V7.79167C4.25 7.22808 4.47388 6.68758 4.8724 6.28906C5.27091 5.89055 5.81141 5.66667 6.375 5.66667H10.625C11.1886 5.66667 11.7291 5.89055 12.1276 6.28906C12.5261 6.68758 12.75 7.22808 12.75 7.79167V12.0417H10.625V16.2917C10.625 16.4795 10.5504 16.6597 10.4175 16.7925C10.2847 16.9254 10.1045 17 9.91667 17Z" fill="#94A3B8"/>
</g>
<defs>
<clipPath id="clip0_1_442">
<rect width="17" height="17" fill="white"/>
</clipPath>
</defs>
</svg>
