<svg width="17" height="17" viewBox="0 0 17 17" fill="none" xmlns="http://www.w3.org/2000/svg">
<path d="M13.5227 6.95455C15.4432 6.95455 17 5.39772 17 3.47727C17 1.55683 15.4432 0 13.5227 0C11.6023 0 10.0455 1.55683 10.0455 3.47727C10.0455 5.39772 11.6023 6.95455 13.5227 6.95455Z" fill="#94A3B8"/>
<path d="M3.47727 6.95455C5.39772 6.95455 6.95455 5.39772 6.95455 3.47727C6.95455 1.55683 5.39772 0 3.47727 0C1.55683 0 0 1.55683 0 3.47727C0 5.39772 1.55683 6.95455 3.47727 6.95455Z" fill="#94A3B8"/>
<path d="M13.5227 17C15.4432 17 17 15.4432 17 13.5227C17 11.6023 15.4432 10.0454 13.5227 10.0454C11.6023 10.0454 10.0455 11.6023 10.0455 13.5227C10.0455 15.4432 11.6023 17 13.5227 17Z" fill="#94A3B8"/>
<path d="M3.47727 17C5.39772 17 6.95455 15.4432 6.95455 13.5227C6.95455 11.6023 5.39772 10.0454 3.47727 10.0454C1.55683 10.0454 0 11.6023 0 13.5227C0 15.4432 1.55683 17 3.47727 17Z" fill="#94A3B8"/>
</svg>
