<svg width="17" height="17" viewBox="0 0 17 17" fill="none" xmlns="http://www.w3.org/2000/svg">
<path d="M5.71625 11.3333H7.08333V5.66668H5.71625C6.33996 4.58638 7.30271 3.74206 8.45519 3.26469C9.60766 2.78733 10.8854 2.70357 12.0904 3.02643C13.2953 3.34929 14.36 4.06071 15.1194 5.05036C15.8788 6.04001 16.2904 7.25258 16.2904 8.50001C16.2904 9.74744 15.8788 10.96 15.1194 11.9497C14.36 12.9393 13.2953 13.6507 12.0904 13.9736C10.8854 14.2965 9.60766 14.2127 8.45519 13.7353C7.30271 13.258 6.33996 12.4136 5.71625 11.3333Z" fill="#475569"/>
<path d="M10.625 8.5L5.66667 4.25V7.79167H0V9.20833H5.66667V12.75L10.625 8.5Z" fill="#94A3B8"/>
</svg>
